<svg width="92" height="51" viewBox="0 0 92 51" fill="none" xmlns="http://www.w3.org/2000/svg">
<g clip-path="url(#clip0_1150_4)">
<path d="M91.7929 18.1384C91.8024 18.0675 91.8024 17.9959 91.7929 17.925C91.8019 17.8672 91.8019 17.8083 91.7929 17.7504L91.1128 12.7649C91.0147 12.1685 90.7523 11.611 90.3552 11.1548L90.2385 11.019L90.025 10.8056L78.2519 0.679447L78.5821 1.00925C78.3119 0.686451 77.9728 0.428253 77.5895 0.253678C77.2062 0.0791015 76.7885 -0.00741629 76.3674 0.000506708H72.7927C72.2114 -0.0109932 71.6434 0.173545 71.1802 0.524283C70.6938 0.175658 70.1082 -0.00793661 69.5094 0.000506708H65.9347C65.4659 -0.00708854 65.0035 0.109095 64.5941 0.337328C64.1847 0.565561 63.843 0.897739 63.6035 1.30022C63.2343 1.87508 63.0955 2.5677 63.2149 3.24011L63.6618 6.3827C63.3657 6.21514 63.0306 6.1282 62.6904 6.13054H45.3804C44.7594 6.13443 44.1526 6.3162 43.6319 6.65429C43.1284 6.96898 42.7242 7.41959 42.4663 7.954L41.1258 6.80948C40.5982 6.32204 39.9018 6.05783 39.183 6.07234H12.0234C11.4001 6.08367 10.7907 6.25753 10.2555 6.5767C9.52332 7.00462 8.98674 7.7004 8.75954 8.51658L0.133722 37.3238C-0.0274485 37.7985 -0.0433032 38.3104 0.0881884 38.7942C0.21968 39.2778 0.492563 39.7115 0.871976 40.0397C0.97084 40.1234 1.07465 40.2011 1.18282 40.2724C1.18282 40.2724 1.00795 40.156 0.91081 40.0591L12.6839 50.2047C13.182 50.6625 13.8331 50.9184 14.51 50.9223H41.8835C42.5086 50.9062 43.1185 50.7255 43.6514 50.3986C43.9528 50.2341 44.2225 50.0174 44.4479 49.7584L44.5451 49.6226L44.7005 49.4287L44.817 49.2153L46.0993 50.3211C46.5902 50.7607 47.2272 51.0025 47.8866 51H75.3182C75.9427 50.9792 76.5514 50.7989 77.0861 50.4762C77.3808 50.3017 77.6489 50.0861 77.8827 49.8361L77.9798 49.7003L78.1352 49.5063C78.2178 49.3836 78.2895 49.2538 78.3489 49.1182C78.4124 49.0007 78.4644 48.8773 78.5043 48.7498L86.3725 22.445V22.2122C86.3822 22.1219 86.3822 22.0309 86.3725 21.9406V21.766C86.3819 21.7081 86.3819 21.6492 86.3725 21.5914C86.3813 21.4687 86.3813 21.3455 86.3725 21.2228H88.8981C89.1178 21.2429 89.3389 21.2429 89.5586 21.2228H89.7335C89.8757 21.1804 90.0126 21.1218 90.1415 21.0482H90.3358L90.6854 20.7766L90.8408 20.6602L91.1128 20.311V20.1947L91.3071 19.8649C91.2963 19.8008 91.2963 19.7351 91.3071 19.671C91.2968 19.6395 91.2968 19.6054 91.3071 19.5739C91.3484 19.4602 91.3809 19.3434 91.4042 19.2247C91.3952 19.1865 91.3952 19.1465 91.4042 19.1083C91.3948 19.0505 91.3948 18.9915 91.4042 18.9338C91.4042 18.9338 91.7929 18.1772 91.7929 18.1384Z" fill="#FF471F"/>
<path d="M39.9795 8.28382C40.0827 8.37695 40.1547 8.4994 40.186 8.63468C40.2173 8.76995 40.2062 8.91154 40.1545 9.04037L31.5481 37.8282C31.4397 38.1425 31.218 38.4053 30.9264 38.5654C30.6891 38.7239 30.4145 38.8175 30.1298 38.837H2.77589C2.54228 38.8258 2.32096 38.7291 2.15419 38.5654C2.05499 38.4737 1.98536 38.3547 1.95421 38.2235C1.92306 38.0921 1.93184 37.9546 1.97935 37.8282L10.6052 9.04037C10.7046 8.7221 10.9193 8.45231 11.2074 8.28382C11.4486 8.13671 11.7219 8.05018 12.004 8.03163H39.3578C39.5896 8.03386 39.8119 8.12403 39.9795 8.28382ZM25.7003 32.028L30.8486 14.8406H16.4335L11.3045 32.028H25.7003ZM66.0901 8.57479C66.1835 8.68309 66.3001 8.76897 66.4313 8.82607C66.5625 8.88316 66.7048 8.91 66.8479 8.90457H70.4031C70.5385 8.90589 70.6719 8.87274 70.7909 8.80825C70.9099 8.74376 71.0104 8.65005 71.083 8.53599C71.1462 8.44689 71.1908 8.34603 71.2141 8.23939C71.2374 8.13276 71.2391 8.02253 71.219 7.91524L70.5196 2.79395C70.4531 2.55693 70.3335 2.33806 70.17 2.15379C70.0766 2.04549 69.96 1.9596 69.8288 1.90251C69.6976 1.84541 69.5552 1.81859 69.4123 1.82401H65.8571C65.7217 1.82269 65.5882 1.85584 65.4692 1.92033C65.3503 1.98482 65.2497 2.07852 65.1771 2.1926C65.0411 2.46417 64.9828 2.63876 65.0411 2.79395L65.7599 7.91524C65.7968 8.16461 65.9125 8.39568 66.0901 8.57479ZM77.3776 2.75515C77.3109 2.51812 77.1913 2.29925 77.0279 2.11499C76.9385 2.00708 76.8253 1.92123 76.6973 1.86403C76.5692 1.80685 76.4298 1.77987 76.2896 1.78521H72.7149C72.5818 1.78142 72.4501 1.81368 72.3338 1.87856C72.2175 1.94345 72.121 2.03856 72.0545 2.15379C71.9252 2.32589 71.8692 2.54206 71.899 2.75515L72.6178 7.87643C72.6629 8.12317 72.7774 8.35196 72.9481 8.53599C73.0431 8.64217 73.16 8.72662 73.2908 8.78353C73.4216 8.84045 73.563 8.8685 73.7057 8.86576H77.2804C77.4133 8.86752 77.5441 8.8344 77.66 8.76971C77.776 8.70502 77.8729 8.61106 77.941 8.49721C78.0086 8.41042 78.0558 8.30959 78.0794 8.20218C78.1029 8.09478 78.102 7.98348 78.0769 7.87643L77.3776 2.75515ZM62.9623 10.5147L62.6126 7.99283H45.3804C45.1099 8.00772 44.8481 8.09482 44.6227 8.24501C44.4797 8.32293 44.3551 8.43092 44.2578 8.56153C44.1606 8.69215 44.0929 8.84227 44.0594 9.00157L42.6217 13.8124C42.5643 13.9327 42.5447 14.0676 42.5655 14.1991C42.5864 14.3307 42.6466 14.4529 42.7383 14.5496C42.9021 14.7034 43.1159 14.793 43.3406 14.8018H64.2835L59.1351 31.9892H38.2505C37.9812 31.9953 37.719 32.0759 37.4929 32.2219C37.2181 32.3962 37.0175 32.6656 36.9295 32.9785L35.4724 37.7895C35.4249 37.9129 35.4124 38.047 35.4363 38.1771C35.4604 38.3072 35.5198 38.4281 35.6083 38.5265C35.7671 38.6906 35.9825 38.7878 36.2106 38.7981H63.6423C63.926 38.7738 64.1994 38.6805 64.4388 38.5265C64.7256 38.3656 64.9409 38.1023 65.0411 37.7895L72.9286 11.4846H64.0503C63.9094 11.4874 63.7695 11.4613 63.6392 11.4079C63.5089 11.3545 63.391 11.275 63.2927 11.1742C63.132 10.9983 63.0184 10.7848 62.9623 10.5535V10.5147Z" fill="white"/>
</g>
<defs>
<clipPath id="clip0_1150_4">
<rect width="91.8" height="51" fill="white"/>
</clipPath>
</defs>
</svg>
